<mxfile host="app.diagrams.net" modified="2022-08-14T17:47:31.234Z" agent="5.0 (Windows)" etag="QeBHD785bZlwXthcNsEU" version="20.2.3" type="github">
  <diagram id="eOOawasVfFLO7kM3hP4L" name="Страница 1">
    <mxGraphModel dx="1385" dy="790" grid="1" gridSize="10" guides="1" tooltips="1" connect="1" arrows="1" fold="1" page="1" pageScale="1" pageWidth="827" pageHeight="1169" math="0" shadow="0">
      <root>
        <mxCell id="0" />
        <mxCell id="1" parent="0" />
        <mxCell id="m7PkI1kBigWTkBNC3jgO-1" value="ТАБЛИЦЫ" style="rounded=0;whiteSpace=wrap;html=1;" vertex="1" parent="1">
          <mxGeometry x="385" y="240" width="120" height="60" as="geometry" />
        </mxCell>
        <mxCell id="m7PkI1kBigWTkBNC3jgO-2" value="NAV" style="text;html=1;strokeColor=none;fillColor=none;align=center;verticalAlign=middle;whiteSpace=wrap;rounded=0;" vertex="1" parent="1">
          <mxGeometry x="415" y="135" width="60" height="30" as="geometry" />
        </mxCell>
        <mxCell id="m7PkI1kBigWTkBNC3jgO-3" value="CMS" style="rounded=0;whiteSpace=wrap;html=1;" vertex="1" parent="1">
          <mxGeometry x="385" y="410" width="120" height="60" as="geometry" />
        </mxCell>
        <mxCell id="m7PkI1kBigWTkBNC3jgO-16" value="" style="rounded=0;whiteSpace=wrap;html=1;" vertex="1" parent="1">
          <mxGeometry x="350" y="565" width="190" height="60" as="geometry" />
        </mxCell>
        <mxCell id="m7PkI1kBigWTkBNC3jgO-17" value="" style="endArrow=classic;html=1;rounded=0;entryX=0.5;entryY=0;entryDx=0;entryDy=0;exitX=0.5;exitY=1;exitDx=0;exitDy=0;" edge="1" parent="1" source="m7PkI1kBigWTkBNC3jgO-2" target="m7PkI1kBigWTkBNC3jgO-1">
          <mxGeometry width="50" height="50" relative="1" as="geometry">
            <mxPoint x="320" y="480" as="sourcePoint" />
            <mxPoint x="370" y="430" as="targetPoint" />
          </mxGeometry>
        </mxCell>
        <mxCell id="m7PkI1kBigWTkBNC3jgO-18" value="Страница акции" style="text;html=1;strokeColor=none;fillColor=none;align=center;verticalAlign=middle;whiteSpace=wrap;rounded=0;" vertex="1" parent="1">
          <mxGeometry x="375" y="580" width="140" height="30" as="geometry" />
        </mxCell>
        <mxCell id="m7PkI1kBigWTkBNC3jgO-19" value="" style="endArrow=classic;html=1;rounded=0;entryX=0.5;entryY=0;entryDx=0;entryDy=0;exitX=0.5;exitY=1;exitDx=0;exitDy=0;" edge="1" parent="1" source="m7PkI1kBigWTkBNC3jgO-3" target="m7PkI1kBigWTkBNC3jgO-16">
          <mxGeometry width="50" height="50" relative="1" as="geometry">
            <mxPoint x="401" y="490" as="sourcePoint" />
            <mxPoint x="451" y="440" as="targetPoint" />
          </mxGeometry>
        </mxCell>
        <mxCell id="m7PkI1kBigWTkBNC3jgO-22" value="" style="shape=cross;whiteSpace=wrap;html=1;size=0.15;" vertex="1" parent="1">
          <mxGeometry x="425" y="340" width="40" height="40" as="geometry" />
        </mxCell>
        <mxCell id="m7PkI1kBigWTkBNC3jgO-23" value="" style="rounded=1;whiteSpace=wrap;html=1;" vertex="1" parent="1">
          <mxGeometry x="604" y="240" width="120" height="60" as="geometry" />
        </mxCell>
        <mxCell id="m7PkI1kBigWTkBNC3jgO-24" value="Feeds" style="text;html=1;strokeColor=none;fillColor=none;align=center;verticalAlign=middle;whiteSpace=wrap;rounded=0;" vertex="1" parent="1">
          <mxGeometry x="634" y="255" width="60" height="30" as="geometry" />
        </mxCell>
        <mxCell id="m7PkI1kBigWTkBNC3jgO-25" value="" style="endArrow=classic;html=1;rounded=0;exitX=1;exitY=0.5;exitDx=0;exitDy=0;entryX=0;entryY=0.5;entryDx=0;entryDy=0;" edge="1" parent="1" source="m7PkI1kBigWTkBNC3jgO-1" target="m7PkI1kBigWTkBNC3jgO-23">
          <mxGeometry width="50" height="50" relative="1" as="geometry">
            <mxPoint x="620" y="480" as="sourcePoint" />
            <mxPoint x="670" y="430" as="targetPoint" />
          </mxGeometry>
        </mxCell>
        <mxCell id="m7PkI1kBigWTkBNC3jgO-26" value="Actor" style="shape=umlActor;verticalLabelPosition=bottom;verticalAlign=top;html=1;outlineConnect=0;" vertex="1" parent="1">
          <mxGeometry x="165" y="565" width="30" height="60" as="geometry" />
        </mxCell>
        <mxCell id="m7PkI1kBigWTkBNC3jgO-27" value="" style="rounded=0;whiteSpace=wrap;html=1;" vertex="1" parent="1">
          <mxGeometry x="120" y="405" width="120" height="60" as="geometry" />
        </mxCell>
        <mxCell id="m7PkI1kBigWTkBNC3jgO-28" value="" style="endArrow=classic;html=1;rounded=0;entryX=0.5;entryY=1;entryDx=0;entryDy=0;" edge="1" parent="1" target="m7PkI1kBigWTkBNC3jgO-27">
          <mxGeometry width="50" height="50" relative="1" as="geometry">
            <mxPoint x="180" y="540" as="sourcePoint" />
            <mxPoint x="370" y="430" as="targetPoint" />
          </mxGeometry>
        </mxCell>
        <mxCell id="m7PkI1kBigWTkBNC3jgO-29" value="Заказ" style="text;html=1;strokeColor=none;fillColor=none;align=center;verticalAlign=middle;whiteSpace=wrap;rounded=0;" vertex="1" parent="1">
          <mxGeometry x="150" y="420" width="60" height="30" as="geometry" />
        </mxCell>
        <mxCell id="m7PkI1kBigWTkBNC3jgO-30" value="" style="rounded=0;whiteSpace=wrap;html=1;" vertex="1" parent="1">
          <mxGeometry x="120" y="240" width="120" height="60" as="geometry" />
        </mxCell>
        <mxCell id="m7PkI1kBigWTkBNC3jgO-31" value="" style="rounded=0;whiteSpace=wrap;html=1;" vertex="1" parent="1">
          <mxGeometry x="120" y="120" width="120" height="60" as="geometry" />
        </mxCell>
        <mxCell id="m7PkI1kBigWTkBNC3jgO-32" value="Расчет скидок" style="text;html=1;strokeColor=none;fillColor=none;align=center;verticalAlign=middle;whiteSpace=wrap;rounded=0;" vertex="1" parent="1">
          <mxGeometry x="150" y="255" width="60" height="30" as="geometry" />
        </mxCell>
        <mxCell id="m7PkI1kBigWTkBNC3jgO-33" value="Расчет скидок" style="text;html=1;strokeColor=none;fillColor=none;align=center;verticalAlign=middle;whiteSpace=wrap;rounded=0;" vertex="1" parent="1">
          <mxGeometry x="150" y="135" width="60" height="30" as="geometry" />
        </mxCell>
        <mxCell id="m7PkI1kBigWTkBNC3jgO-34" value="" style="endArrow=classic;html=1;rounded=0;exitX=0.5;exitY=0;exitDx=0;exitDy=0;entryX=0.5;entryY=1;entryDx=0;entryDy=0;" edge="1" parent="1" source="m7PkI1kBigWTkBNC3jgO-27" target="m7PkI1kBigWTkBNC3jgO-30">
          <mxGeometry width="50" height="50" relative="1" as="geometry">
            <mxPoint x="250" y="485" as="sourcePoint" />
            <mxPoint x="300" y="435" as="targetPoint" />
          </mxGeometry>
        </mxCell>
        <mxCell id="m7PkI1kBigWTkBNC3jgO-35" value="" style="endArrow=classic;html=1;rounded=0;entryX=1;entryY=0.5;entryDx=0;entryDy=0;" edge="1" parent="1" target="m7PkI1kBigWTkBNC3jgO-30">
          <mxGeometry width="50" height="50" relative="1" as="geometry">
            <mxPoint x="380" y="270" as="sourcePoint" />
            <mxPoint x="370" y="250" as="targetPoint" />
          </mxGeometry>
        </mxCell>
        <mxCell id="m7PkI1kBigWTkBNC3jgO-36" value="" style="endArrow=classic;html=1;rounded=0;exitX=0;exitY=0.5;exitDx=0;exitDy=0;entryX=1;entryY=0.5;entryDx=0;entryDy=0;" edge="1" parent="1" source="m7PkI1kBigWTkBNC3jgO-2" target="m7PkI1kBigWTkBNC3jgO-31">
          <mxGeometry width="50" height="50" relative="1" as="geometry">
            <mxPoint x="264" y="165" as="sourcePoint" />
            <mxPoint x="240" y="140" as="targetPoint" />
          </mxGeometry>
        </mxCell>
      </root>
    </mxGraphModel>
  </diagram>
</mxfile>
